<svg width="20" height="20" viewBox="0 0 20 20" fill="none" xmlns="http://www.w3.org/2000/svg">
<path d="M6.6665 1.66667V4.16667M13.3332 1.66667V4.16667" stroke="#4F4F4F" stroke-width="1.5" stroke-miterlimit="10" stroke-linecap="round" stroke-linejoin="round"/>
<path d="M18.3333 18.3333L17.5 17.5M15.1667 17.8333C15.8739 17.8333 16.5522 17.5524 17.0523 17.0523C17.5524 16.5522 17.8333 15.8739 17.8333 15.1667C17.8333 14.4594 17.5524 13.7811 17.0523 13.281C16.5522 12.781 15.8739 12.5 15.1667 12.5C14.4594 12.5 13.7811 12.781 13.281 13.281C12.781 13.7811 12.5 14.4594 12.5 15.1667C12.5 15.8739 12.781 16.5522 13.281 17.0523C13.7811 17.5524 14.4594 17.8333 15.1667 17.8333Z" stroke="#4F4F4F" stroke-width="1.5" stroke-linecap="round" stroke-linejoin="round"/>
<path d="M2.91667 7.57501H17.0833M11.1417 18.3333H6.66667C3.75 18.3333 2.5 16.6667 2.5 14.1667V7.08334C2.5 4.58334 3.75 2.91667 6.66667 2.91667H13.3333C16.25 2.91667 17.5 4.58334 17.5 7.08334V10.8333" stroke="#4F4F4F" stroke-width="1.5" stroke-miterlimit="10" stroke-linecap="round" stroke-linejoin="round"/>
<path d="M9.99579 11.4167H10.0041M6.91162 11.4167H6.91995M6.91162 13.9167H6.91995" stroke="#4F4F4F" stroke-width="2" stroke-linecap="round" stroke-linejoin="round"/>
</svg>
