<svg width="20" height="20" viewBox="0 0 20 20" fill="none" xmlns="http://www.w3.org/2000/svg">
<g clip-path="url(#clip0_579_3465)">
<path d="M7.49984 18.3334H12.4998C16.6665 18.3334 18.3332 16.6667 18.3332 12.5001V7.50008C18.3332 3.33341 16.6665 1.66675 12.4998 1.66675H7.49984C3.33317 1.66675 1.6665 3.33341 1.6665 7.50008V12.5001C1.6665 16.6667 3.33317 18.3334 7.49984 18.3334Z" stroke="#FAFAFA" stroke-width="1.5" stroke-linecap="round" stroke-linejoin="round"/>
<path opacity="0.4" d="M12.9165 15.4166C13.8332 15.4166 14.5832 14.6666 14.5832 13.7499V6.24992C14.5832 5.33325 13.8332 4.58325 12.9165 4.58325C11.9998 4.58325 11.2498 5.33325 11.2498 6.24992V13.7499C11.2498 14.1919 11.4254 14.6159 11.738 14.9284C12.0506 15.241 12.4745 15.4166 12.9165 15.4166ZM7.08317 15.4166C7.99984 15.4166 8.74984 14.6666 8.74984 13.7499V10.8333C8.74984 9.91659 7.99984 9.16659 7.08317 9.16659C6.1665 9.16659 5.4165 9.91659 5.4165 10.8333V13.7499C5.4165 14.1919 5.5921 14.6159 5.90466 14.9284C6.21722 15.241 6.64114 15.4166 7.08317 15.4166Z" stroke="#FAFAFA" stroke-width="1.5" stroke-linecap="round" stroke-linejoin="round"/>
</g>
<defs>
<clipPath id="clip0_579_3465">
<rect width="20" height="20" fill="white"/>
</clipPath>
</defs>
</svg>
