<svg width="20" height="20" viewBox="0 0 20 20" fill="none" xmlns="http://www.w3.org/2000/svg">
<path opacity="0.4" d="M13.4915 1.66675H6.50817C3.47484 1.66675 1.6665 3.47508 1.6665 6.50841V13.4834C1.6665 16.5251 3.47484 18.3334 6.50817 18.3334H13.4832C16.5165 18.3334 18.3248 16.5251 18.3248 13.4917V6.50841C18.3332 3.47508 16.5248 1.66675 13.4915 1.66675Z" fill="#27AE60"/>
<path d="M13.6836 6.50671V13.49C13.6836 14.0234 13.2502 14.4567 12.7169 14.4567C12.1752 14.4567 11.7419 14.0234 11.7419 13.49V6.50671C11.7419 5.97337 12.1752 5.54004 12.7169 5.54004C13.2502 5.54004 13.6836 5.97337 13.6836 6.50671ZM8.25856 10.775V13.4917C8.25856 14.025 7.82523 14.4584 7.28356 14.4584C6.75023 14.4584 6.31689 14.025 6.31689 13.4917V10.775C6.31689 10.2417 6.75023 9.80837 7.28356 9.80837C7.82523 9.80837 8.25856 10.2417 8.25856 10.775Z" fill="#27AE60"/>
</svg>
