<svg width="20" height="24" viewBox="0 0 20 24" fill="none" xmlns="http://www.w3.org/2000/svg">
<rect width="20" height="20" rx="5" fill="#2F80ED"/>
<rect x="10.0605" y="13" width="7.6725" height="7.6725" rx="1" transform="rotate(45 10.0605 13)" fill="#2F80ED"/>
<path d="M7.77498 5H12.225C14.9916 5 16.1166 6.95833 14.7416 9.35L14.125 10.4167C13.975 10.675 13.7 10.8333 13.4 10.8333H6.59998C6.29998 10.8333 6.02498 10.675 5.87498 10.4167L5.25831 9.35C3.88331 6.95833 5.00831 5 7.77498 5Z" fill="#FAFAFA"/>
<path opacity="0.4" d="M7.3248 11.6667H12.6831C13.0081 11.6667 13.2081 12.0167 13.0415 12.2917L12.5081 13.2083C11.1331 15.6 8.86647 15.6 7.49147 13.2083L6.95814 12.2917C6.7998 12.0167 6.9998 11.6667 7.3248 11.6667Z" fill="#FAFAFA"/>
</svg>
