<svg width="20" height="24" viewBox="0 0 20 24" fill="none" xmlns="http://www.w3.org/2000/svg">
<rect x="20" y="24" width="20" height="20" rx="5" transform="rotate(-180 20 24)" fill="#27AE60"/>
<rect x="9.93945" y="11" width="7.6725" height="7.6725" rx="1" transform="rotate(-135 9.93945 11)" fill="#27AE60"/>
<path d="M12.225 19L7.77502 19C5.00836 19 3.88336 17.0417 5.25836 14.65L5.87502 13.5833C6.02502 13.325 6.30002 13.1667 6.60002 13.1667L13.4 13.1667C13.7 13.1667 13.975 13.325 14.125 13.5833L14.7417 14.65C16.1167 17.0417 14.9917 19 12.225 19Z" fill="#FAFAFA"/>
<path opacity="0.4" d="M12.6752 12.3333L7.31686 12.3333C6.99186 12.3333 6.79186 11.9833 6.95853 11.7083L7.49186 10.7917C8.86686 8.39999 11.1335 8.39999 12.5085 10.7917L13.0419 11.7083C13.2002 11.9833 13.0002 12.3333 12.6752 12.3333Z" fill="#FAFAFA"/>
</svg>
