<svg width="20" height="20" viewBox="0 0 20 20" fill="none" xmlns="http://www.w3.org/2000/svg">
<path opacity="0.4" d="M9.99984 1.66675C7.8165 1.66675 6.0415 3.44175 6.0415 5.62508C6.0415 7.76675 7.7165 9.50008 9.89984 9.57508C9.9665 9.56675 10.0332 9.56675 10.0832 9.57508H10.1415C11.166 9.5409 12.137 9.10965 12.8492 8.3725C13.5615 7.63536 13.9592 6.65011 13.9582 5.62508C13.9582 3.44175 12.1832 1.66675 9.99984 1.66675Z" fill="#27AE60"/>
<path d="M14.2333 11.7909C11.9083 10.2409 8.11663 10.2409 5.77497 11.7909C4.71663 12.4993 4.1333 13.4576 4.1333 14.4826C4.1333 15.5076 4.71663 16.4576 5.76663 17.1576C6.9333 17.9409 8.46663 18.3326 9.99997 18.3326C11.5333 18.3326 13.0666 17.9409 14.2333 17.1576C15.2833 16.4493 15.8666 15.4993 15.8666 14.4659C15.8583 13.4409 15.2833 12.4909 14.2333 11.7909Z" fill="#27AE60"/>
</svg>
