<svg width="20" height="20" viewBox="0 0 20 20" fill="none" xmlns="http://www.w3.org/2000/svg">
<path opacity="0.4" d="M10.1327 9.05828C10.0493 9.04995 9.94933 9.04995 9.85766 9.05828C8.90117 9.02581 7.99487 8.62231 7.33069 7.93325C6.66651 7.24419 6.29661 6.32366 6.29933 5.36662C6.29933 3.32495 7.94933 1.66662 9.99933 1.66662C10.9795 1.64894 11.9266 2.02136 12.6322 2.70196C13.3378 3.38256 13.7442 4.31559 13.7618 5.29578C13.7795 6.27598 13.4071 7.22305 12.7265 7.92866C12.0459 8.63426 11.1129 9.0406 10.1327 9.05828V9.05828Z" stroke="#FAFAFA" stroke-width="1.5" stroke-linecap="round" stroke-linejoin="round"/>
<path d="M5.96563 12.1333C3.94896 13.4833 3.94896 15.6833 5.96563 17.0249C8.25729 18.5583 12.0156 18.5583 14.3073 17.0249C16.324 15.6749 16.324 13.4749 14.3073 12.1333C12.024 10.6083 8.26562 10.6083 5.96563 12.1333V12.1333Z" stroke="#FAFAFA" stroke-width="1.5" stroke-linecap="round" stroke-linejoin="round"/>
</svg>
