<svg width="16" height="16" viewBox="0 0 16 16" fill="none" xmlns="http://www.w3.org/2000/svg">
<g clip-path="url(#clip0_98_3531)">
<path opacity="0.34" d="M8 10C8.53043 10 9.03914 9.78929 9.41421 9.41421C9.78929 9.03914 10 8.53043 10 8C10 7.46957 9.78929 6.96086 9.41421 6.58579C9.03914 6.21071 8.53043 6 8 6C7.46957 6 6.96086 6.21071 6.58579 6.58579C6.21071 6.96086 6 7.46957 6 8C6 8.53043 6.21071 9.03914 6.58579 9.41421C6.96086 9.78929 7.46957 10 8 10V10Z" stroke="#121212" stroke-width="1.5" stroke-miterlimit="10" stroke-linecap="round" stroke-linejoin="round"/>
<path d="M1.3335 8.58727V7.41394C1.3335 6.72061 1.90016 6.14728 2.60016 6.14728C3.80683 6.14728 4.30016 5.29394 3.6935 4.24728C3.34683 3.64728 3.5535 2.86728 4.16016 2.52061L5.3135 1.86061C5.84016 1.54728 6.52016 1.73394 6.8335 2.26061L6.90683 2.38728C7.50683 3.43394 8.4935 3.43394 9.10016 2.38728L9.1735 2.26061C9.48683 1.73394 10.1668 1.54728 10.6935 1.86061L11.8468 2.52061C12.4535 2.86728 12.6602 3.64728 12.3135 4.24728C11.7068 5.29394 12.2002 6.14728 13.4068 6.14728C14.1002 6.14728 14.6735 6.71394 14.6735 7.41394V8.58727C14.6735 9.28061 14.1068 9.85394 13.4068 9.85394C12.2002 9.85394 11.7068 10.7073 12.3135 11.7539C12.6602 12.3606 12.4535 13.1339 11.8468 13.4806L10.6935 14.1406C10.1668 14.4539 9.48683 14.2673 9.1735 13.7406L9.10016 13.6139C8.50016 12.5673 7.5135 12.5673 6.90683 13.6139L6.8335 13.7406C6.52016 14.2673 5.84016 14.4539 5.3135 14.1406L4.16016 13.4806C3.86956 13.3133 3.65722 13.0375 3.56973 12.7138C3.48224 12.3901 3.52675 12.0449 3.6935 11.7539C4.30016 10.7073 3.80683 9.85394 2.60016 9.85394C1.90016 9.85394 1.3335 9.28061 1.3335 8.58727V8.58727Z" stroke="#121212" stroke-width="1.5" stroke-miterlimit="10" stroke-linecap="round" stroke-linejoin="round"/>
</g>
<defs>
<clipPath id="clip0_98_3531">
<rect width="16" height="16" fill="white"/>
</clipPath>
</defs>
</svg>
