<svg width="57" height="39" viewBox="0 0 57 39" fill="none" xmlns="http://www.w3.org/2000/svg">
<path opacity="0.3" d="M39.1875 34.6125L55.8125 27.7875L17.8125 12.1875L1.1875 19.0125L39.1875 34.6125Z" fill="#262626"/>
<path d="M8.22953 19.149L14.1908 17.784L10.082 15.8438L8.00391 17.4915L8.22953 19.149ZM31.077 28.8795L37.0383 27.5145L32.9177 25.5742L30.8395 27.222L31.077 28.8795Z" fill="#2D3134"/>
<path opacity="0.29" d="M8.22953 19.149L14.1908 17.784L10.082 15.8438L8.00391 17.4915L8.22953 19.149ZM31.077 28.8795L37.0383 27.5145L32.9177 25.5742L30.8395 27.222L31.077 28.8795Z" fill="black"/>
<path d="M35.4351 26.9393C34.6395 26.6078 33.9151 26.5688 33.3807 26.7735L32.2526 27.2708C31.6826 27.4853 31.3145 27.963 31.3145 28.665C31.3145 30.0203 32.6563 31.6778 34.307 32.3505C35.1263 32.682 35.8626 32.721 36.4088 32.5065C36.4088 32.5065 37.5251 32.019 37.6438 31.9605C38.1307 31.7265 38.4276 31.2683 38.4276 30.6345C38.4276 29.2695 37.0857 27.6218 35.4351 26.9393Z" fill="#2D3134"/>
<path opacity="0.29" d="M36.4443 32.4967C36.6581 32.409 37.5368 32.019 37.6437 31.9605C38.1306 31.7265 38.4275 31.2682 38.4275 30.6345C38.4275 30.0885 38.2137 29.4937 37.8456 28.938L36.7175 29.4352C37.0856 29.991 37.2993 30.5857 37.2993 31.1317C37.3112 31.7947 36.9787 32.2725 36.4443 32.4967Z" fill="black"/>
<path d="M37.3112 31.1317C37.3112 32.487 35.9693 33.0427 34.3187 32.3602C32.668 31.6777 31.3262 30.03 31.3262 28.6747C31.3262 27.3195 32.668 26.7637 34.3187 27.4462C35.9693 28.119 37.3112 29.7765 37.3112 31.1317Z" fill="#2D3134"/>
<path d="M36.646 30.8588C36.646 31.9215 35.601 32.3505 34.3067 31.824C33.0123 31.2975 31.9673 30.0008 31.9673 28.938C31.9673 27.8753 33.0123 27.4463 34.3067 27.9728C35.601 28.509 36.646 29.796 36.646 30.8588Z" fill="#E5E5E5"/>
<path d="M35.8507 31.7167C36.207 31.551 36.4207 31.2292 36.4207 30.771V30.6637L35.1145 30.498L35.8507 31.7167ZM34.8057 29.601L36.1713 29.8447C35.8863 29.289 35.3757 28.743 34.7582 28.392L34.8057 29.601ZM33.8201 29.2012L33.8676 28.0312C33.2501 27.885 32.7395 28.002 32.4545 28.3237L33.8201 29.2012ZM32.2051 28.9282V29.0355C32.2051 29.4937 32.4188 29.991 32.7751 30.4492L33.5232 29.8447L32.2051 28.9282ZM34.307 30.6345L33.4995 31.1707C33.7488 31.356 34.022 31.512 34.307 31.629C34.592 31.746 34.8651 31.8142 35.1145 31.824L34.307 30.6345Z" fill="#2D3134"/>
<path opacity="0.11" d="M37.3112 31.1317C37.3112 32.487 35.9693 33.0427 34.3187 32.3602C32.668 31.6777 31.3262 30.03 31.3262 28.6747C31.3262 27.3195 32.668 26.7637 34.3187 27.4462C35.9693 28.119 37.3112 29.7765 37.3112 31.1317Z" fill="black"/>
<path d="M12.6113 17.5109C11.8157 17.1794 11.0913 17.1404 10.557 17.3452L9.42885 17.8424C8.85885 18.0569 8.49072 18.5347 8.49072 19.2367C8.49072 20.5919 9.8326 22.2494 11.4832 22.9222C12.3026 23.2537 13.0388 23.2927 13.5851 23.0782C13.5851 23.0782 14.7013 22.5907 14.8201 22.5322C15.307 22.2982 15.6038 21.8399 15.6038 21.2062C15.6157 19.8412 14.2738 18.1934 12.6113 17.5109Z" fill="#2D3134"/>
<path opacity="0.29" d="M13.6323 23.0685C13.8461 22.9808 14.7248 22.5908 14.8317 22.5323C15.3186 22.2983 15.6154 21.84 15.6154 21.2063C15.6154 20.6603 15.4017 20.0655 15.0336 19.5098L13.9054 20.007C14.2736 20.5628 14.4873 21.1575 14.4873 21.7035C14.4873 22.3665 14.1548 22.8345 13.6323 23.0685Z" fill="black"/>
<path d="M14.4874 21.6938C14.4874 23.049 13.1456 23.6048 11.4949 22.9223C9.84432 22.2398 8.50244 20.592 8.50244 19.2368C8.50244 17.8815 9.84432 17.3258 11.4949 18.0083C13.1456 18.6908 14.4874 20.3385 14.4874 21.6938Z" fill="#2D3134"/>
<path d="M13.8345 21.4305C13.8345 22.4933 12.7895 22.9223 11.4951 22.3958C10.2008 21.8693 9.15576 20.5725 9.15576 19.5098C9.15576 18.447 10.2008 18.018 11.4951 18.5445C12.7895 19.071 13.8345 20.3678 13.8345 21.4305Z" fill="#E5E5E5"/>
<path d="M13.0387 22.2788C13.3949 22.113 13.6087 21.7913 13.6087 21.333V21.2258L12.3024 21.06L13.0387 22.2788ZM11.9818 20.163L13.3474 20.4068C13.0624 19.851 12.5518 19.305 11.9343 18.954L11.9818 20.163ZM11.0081 19.7633L11.0556 18.5933C10.4381 18.447 9.92744 18.564 9.64244 18.8858L11.0081 19.7633ZM9.39307 19.4903V19.5975C9.39307 20.0558 9.60682 20.553 9.96307 21.0113L10.7112 20.4068L9.39307 19.4903ZM11.4949 21.2063L10.6874 21.7425C10.9368 21.9278 11.2099 22.0838 11.4949 22.2008C11.7799 22.3178 12.0531 22.386 12.3024 22.3958L11.4949 21.2063Z" fill="#2D3134"/>
<path opacity="0.11" d="M14.4874 21.6938C14.4874 23.049 13.1456 23.6048 11.4949 22.9223C9.84432 22.2398 8.50244 20.592 8.50244 19.2368C8.50244 17.8815 9.84432 17.3258 11.4949 18.0083C13.1456 18.6908 14.4874 20.3385 14.4874 21.6938Z" fill="black"/>
<path d="M52.3686 21.5475C50.0768 19.8705 40.1968 13.494 38.5461 12.4897C36.8955 11.4855 30.9224 8.40449 26.9086 7.55624C22.8949 6.70799 22.3961 7.20524 21.5768 7.05899C20.7574 6.91274 18.323 6.44474 14.7368 7.35149C13.2049 7.74149 11.388 8.17049 9.90363 9.26249C7.93238 10.7055 6.41238 12.948 5.67613 14.1667L5.52176 14.5762C5.24863 15.3075 5.36738 16.107 5.84238 16.7602C6.24613 17.316 6.75676 17.9595 7.13676 18.3105C7.46926 18.6127 7.87301 18.9345 8.21738 19.2075V19.1392C8.21738 18.1057 8.95363 17.4427 10.0936 17.4427C10.5449 17.4427 11.0318 17.55 11.5305 17.7547C13.2524 18.4567 14.6418 20.1825 14.6418 21.5962C14.6418 21.7815 14.618 21.957 14.5705 22.1227L31.0649 28.8892C31.053 28.782 31.0411 28.6747 31.0411 28.5772C31.0411 27.5437 31.7774 26.8807 32.9174 26.8807C33.3686 26.8807 33.8555 26.988 34.3543 27.1927C36.0761 27.8947 37.4655 29.6205 37.4655 31.0342C37.4655 31.2 37.4418 31.3462 37.4061 31.4925L38.7243 32.0287C38.7243 32.0287 41.1943 32.5552 42.7736 32.4382C44.353 32.3212 47.6068 31.4437 50.2193 30.381C52.8318 29.3182 55.0405 27.4462 55.088 26.4712C55.1118 26.1007 54.6605 23.2245 52.3686 21.5475Z" fill="#FFCC00"/>
<path d="M43.201 15.8437C43.201 15.8437 43.0585 15.0247 43.201 14.8102C43.3435 14.6055 43.5929 14.2837 43.9135 14.5177C44.2342 14.7517 44.5904 15.4245 44.2698 16.0485C43.9492 16.6725 43.201 15.8437 43.201 15.8437Z" fill="#2D3134"/>
<path opacity="0.3" d="M6.98242 12.6458C6.98242 12.6458 14.6299 16.9845 23.4174 20.865C32.2049 24.7455 36.8243 26.949 36.8243 26.949L31.3974 23.127L11.9343 13.806L6.98242 12.6458Z" fill="white"/>
<path d="M12.1244 13.9034L31.3856 23.1367C31.3856 23.1367 29.5212 16.4092 22.9425 13.6987C16.3637 10.9882 12.1244 13.9034 12.1244 13.9034ZM20.1519 8.91145C22.7169 7.91695 24.8069 7.6147 24.8069 7.40995C24.8069 7.2052 18.2162 6.94195 14.1431 8.61895C10.07 10.2959 10.2719 11.7389 11.8156 11.5829C13.3594 11.4269 15.4256 11.2904 16.0787 11.0272C16.7319 10.7639 17.9669 9.7597 20.1519 8.91145Z" fill="#2D3134"/>
<path d="M11.7442 11.3587C11.5898 11.3587 11.2217 11.3295 11.1623 11.1052C11.0673 10.7737 11.6136 9.84749 14.3805 8.71649C17.4086 7.47824 21.6717 7.38074 22.9067 7.38074C23.5361 7.38074 24.0111 7.40024 24.3317 7.42949C24.1655 7.47824 23.9873 7.52699 23.7973 7.57574C22.9423 7.79999 21.648 8.14124 20.2111 8.70674C18.7505 9.27224 17.6817 9.92549 16.9811 10.3447C16.613 10.5592 16.328 10.7347 16.1261 10.8225C15.6273 11.0272 14.0836 11.1637 12.7298 11.2905C12.4567 11.3197 12.1836 11.3392 11.9342 11.3587H11.7442Z" fill="#656565"/>
<path d="M29.0223 16.5262C28.7848 17.0625 32.5967 22.347 33.7842 22.6102C34.9598 22.8735 38.5105 22.7857 42.0136 21.1965C45.5167 19.6072 46.1698 18.3787 45.9917 17.9302C45.8136 17.4915 39.0805 12.8407 37.9761 12.753C36.8717 12.6652 29.3073 15.873 29.0223 16.5262Z" fill="#2D3134"/>
<path opacity="0.2" d="M38.3682 27.9826C38.3682 27.9826 38.8669 27.4366 40.2088 27.3098C41.5507 27.1928 43.1894 27.3001 44.4125 28.1971C45.3269 28.8698 45.6594 29.1526 45.6594 29.1526C45.6594 29.1526 43.0707 29.8448 41.7882 29.6986C40.5175 29.5523 38.3682 27.9826 38.3682 27.9826Z" fill="white"/>
<path d="M38.6177 27.7972C38.6177 27.7972 39.0808 27.2902 40.3158 27.183C41.5508 27.0757 43.0708 27.1732 44.1989 28.002C45.0421 28.6162 45.3508 28.8795 45.3508 28.8795C45.3508 28.8795 42.9639 29.523 41.7764 29.3865C40.5889 29.25 38.6177 27.7972 38.6177 27.7972Z" fill="#E5E5E5"/>
<path opacity="0.2" d="M52.7725 26.0715C52.7725 26.0715 54.5775 24.687 54.4825 24.297C54.3875 23.8973 52.9981 21.9278 52.82 22.2203C52.6419 22.5128 52.2619 22.9808 52.4044 23.3805C52.5469 23.7803 52.8081 25.7205 52.7725 26.0715Z" fill="white"/>
<path d="M52.7605 25.7985C52.7605 25.7985 54.4587 24.414 54.3755 24.024C54.2805 23.6242 52.8912 21.6547 52.713 21.9472C52.5349 22.2397 52.1549 22.7077 52.2974 23.1075C52.4399 23.4975 52.7962 25.4377 52.7605 25.7985Z" fill="#E5E5E5"/>
<path d="M42.0018 31.6388L41.9424 32.0678C41.9424 32.0678 47.2505 31.512 50.5874 29.8253C53.9124 28.1385 54.7199 26.8223 54.7199 26.8223C54.7199 26.8223 52.1549 29.1038 49.0199 30.1568C45.7305 31.2488 42.0018 31.6388 42.0018 31.6388Z" fill="#2D3134"/>
<path d="M45.232 17.5695C44.6263 17.0918 43.4745 16.2533 42.0138 15.288C39.6388 13.7085 38.2495 12.9773 37.917 12.9578H37.9051C37.4182 12.9578 35.4826 13.6208 33.3213 14.5373C30.8395 15.5805 29.5095 16.3215 29.3195 16.5458C29.3432 16.8188 29.9963 17.979 31.2076 19.578C32.5495 21.3428 33.5232 22.2203 33.8438 22.2983C34.022 22.3373 34.2476 22.3665 34.5088 22.386C36.0763 22.191 38.7838 21.6938 41.4201 20.4165C43.6526 19.3343 44.7213 18.291 45.232 17.5695ZM13.7513 13.533L13.502 14.1473L20.912 17.6963L22.0995 13.7768L22.0638 13.7378C20.4963 13.1723 18.9526 12.8895 17.4445 12.8895C15.8651 12.8993 14.6063 13.221 13.7513 13.533ZM29.367 21.7523L29.6638 20.2605C29.5332 20.0363 29.4026 19.812 29.2482 19.578C28.132 17.8425 26.1607 15.5123 23.0376 14.1375L22.3013 18.3593L29.367 21.7523Z" fill="#656565"/>
<path opacity="0.2" d="M14.9863 16.5359C14.9863 16.8187 14.7013 16.9357 14.3569 16.7992C14.0125 16.6529 13.7275 16.3117 13.7275 16.0192C13.7275 15.7267 14.0125 15.6194 14.3569 15.7559C14.7013 15.9022 14.9863 16.2434 14.9863 16.5359Z" fill="black"/>
<path d="M13.3473 15.6584L13.0742 15.9119C13.0742 15.9119 15.0573 16.9747 15.2355 16.7602C15.4255 16.5554 13.3473 15.6584 13.3473 15.6584Z" fill="#FFCC00"/>
<path opacity="0.2" d="M23.4414 20.4848C23.4414 20.7675 23.1564 20.8845 22.812 20.748C22.4676 20.6018 22.1826 20.2605 22.1826 19.968C22.1826 19.6853 22.4676 19.5683 22.812 19.7048C23.1564 19.851 23.4414 20.1923 23.4414 20.4848Z" fill="black"/>
<path d="M21.8024 19.5975L21.5293 19.851C21.5293 19.851 23.5124 20.9138 23.6905 20.6993C23.8805 20.4945 21.8024 19.5975 21.8024 19.5975Z" fill="#FFCC00"/>
<path opacity="0.2" d="M31.3382 23.1271C31.3382 23.1368 31.1244 23.8096 30.9463 24.6286C30.78 25.3696 30.685 27.8266 30.6613 28.2653L21.2088 24.3361C21.1969 24.1801 21.0663 22.7273 21.0663 21.4013C21.0663 20.0071 21.4938 18.4568 21.4938 18.4471L21.3869 18.4276C21.3869 18.4471 20.9594 20.0071 20.9594 21.4013C20.9594 22.6298 21.0663 23.9753 21.1019 24.2873L16.3994 22.3373C16.2925 22.2203 15.1525 20.9431 14.0363 19.0028C12.8844 17.0041 13.1575 14.4691 13.1694 14.4398L13.0625 14.4301C13.0625 14.4593 12.7775 17.0138 13.9413 19.0418C15.1169 21.0698 16.3163 22.3861 16.3282 22.3958L16.34 22.4056L30.7563 28.4116V28.3433C30.7563 28.3141 30.8632 25.4573 31.0413 24.6481C31.2194 23.8388 31.4332 23.1563 31.4332 23.1563L31.3382 23.1271Z" fill="black"/>
<path opacity="0.3" d="M42.6434 27.9045C42.6434 28.2555 42.299 28.6747 41.8715 28.8502C41.444 29.0257 41.0996 28.8795 41.0996 28.5382C41.0996 28.1872 41.444 27.768 41.8715 27.5925C42.299 27.417 42.6434 27.5535 42.6434 27.9045ZM43.8309 28.158C43.8309 28.4017 43.5934 28.6942 43.2965 28.821C42.9996 28.938 42.7621 28.8405 42.7621 28.5967C42.7621 28.353 42.9996 28.0605 43.2965 27.9337C43.5934 27.8167 43.8309 27.9142 43.8309 28.158Z" fill="black"/>
<path d="M40.9333 28.4798C40.9333 28.6065 40.8027 28.7723 40.6483 28.8308C40.4939 28.899 40.3633 28.8405 40.3633 28.7138C40.3633 28.587 40.4939 28.4213 40.6483 28.3628C40.8027 28.2945 40.9333 28.3433 40.9333 28.4798Z" fill="white"/>
<path opacity="0.4" d="M42.3225 28.1677C42.3225 28.3432 42.1444 28.5577 41.9425 28.6454C41.7288 28.7332 41.5625 28.6649 41.5625 28.4894C41.5625 28.3139 41.7406 28.0994 41.9425 28.0117C42.1444 27.9239 42.3225 27.9922 42.3225 28.1677ZM43.6287 28.3334C43.6287 28.4602 43.4981 28.6259 43.3437 28.6844C43.1894 28.7527 43.0588 28.6942 43.0588 28.5674C43.0588 28.4407 43.1894 28.2749 43.3437 28.2164C43.4981 28.1482 43.6287 28.2067 43.6287 28.3334Z" fill="white"/>
<path d="M40.5055 27.6899C40.5055 27.8167 40.3749 27.9824 40.2205 28.0409C40.0662 28.1092 39.9355 28.0507 39.9355 27.9239C39.9355 27.7972 40.0662 27.6314 40.2205 27.5729C40.3749 27.5047 40.5055 27.5632 40.5055 27.6899ZM53.1999 22.5614C53.1999 22.6882 53.0693 22.8539 52.9149 22.9124C52.7605 22.9807 52.6299 22.9222 52.6299 22.7954C52.6299 22.6687 52.7605 22.5029 52.9149 22.4444C53.0693 22.3762 53.1999 22.4249 53.1999 22.5614ZM53.7343 23.1757C53.7343 23.3024 53.6037 23.4682 53.4493 23.5267C53.2949 23.5949 53.1643 23.5364 53.1643 23.4097C53.1643 23.2829 53.2949 23.1172 53.4493 23.0587C53.6037 22.9904 53.7343 23.0489 53.7343 23.1757Z" fill="white"/>
<path opacity="0.3" d="M53.9008 23.5852C53.9008 23.8875 53.6039 24.2482 53.2358 24.3945C52.8677 24.5407 52.5708 24.4237 52.5708 24.1215C52.5708 23.8192 52.8677 23.4585 53.2358 23.3122C53.6039 23.166 53.9008 23.2927 53.9008 23.5852Z" fill="black"/>
<path opacity="0.4" d="M53.5088 23.907C53.5088 24.063 53.3544 24.2482 53.1762 24.3262C52.9862 24.4042 52.8438 24.336 52.8438 24.1897C52.8438 24.0435 52.9981 23.8485 53.1762 23.7705C53.3544 23.6925 53.5088 23.751 53.5088 23.907Z" fill="white"/>
<path opacity="0.3" d="M53.3664 24.4042C53.3664 24.1605 53.1289 24.063 52.832 24.18C52.737 24.219 52.6539 24.2677 52.5827 24.336C52.6302 24.5992 52.6777 24.8722 52.7133 25.1062C52.7489 25.0965 52.7964 25.0867 52.8439 25.0672C53.1289 24.9502 53.3664 24.648 53.3664 24.4042ZM38.6177 27.7875C39.1996 27.7485 40.8383 27.6802 41.8714 27.885C42.9045 28.0897 44.6977 28.6552 45.3389 28.8697C45.2677 28.8112 44.9352 28.5382 44.1989 28.002C43.0708 27.1732 41.5508 27.0757 40.3158 27.183C39.1877 27.2805 38.7008 27.7095 38.6177 27.7875Z" fill="black"/>
<path d="M28.7018 20.7578C28.7018 20.7578 29.5924 21.1088 29.9961 21.5475C30.388 21.9863 30.388 22.2203 30.388 22.2203C30.388 22.2203 27.918 22.659 26.6949 22.0155C25.4005 21.3233 28.7018 20.7578 28.7018 20.7578ZM35.1974 22.4543L35.6486 22.425L39.8049 20.7675L40.0305 20.4263L42.5599 19.461L42.453 19.2953L37.6199 21.06L37.7624 21.2063L39.6386 20.5238L39.5318 20.6213L35.4705 22.2203L35.1974 22.4543Z" fill="#2D3134"/>
<path d="M39.5913 21.5378H39.9832L43.2963 19.5195L43.7001 18.7395L44.9707 17.4135L44.8876 17.316L42.5007 19.5488L42.5957 19.6658L43.2369 19.1978L43.0588 19.461L39.6982 21.372L39.5913 21.5378ZM44.6026 27.9728L45.9801 28.9868C45.9801 28.9868 47.9751 28.6748 49.7563 27.924C51.5376 27.1733 52.6063 26.1593 52.6063 26.1593L52.4638 24.6773C52.4638 24.6773 51.6563 25.8765 49.3288 26.8223C47.2626 27.6705 44.6026 27.9728 44.6026 27.9728Z" fill="#2D3134"/>
<path opacity="0.29" d="M50.1363 30.1178C52.7369 29.0453 54.9576 27.2318 55.0051 26.2568C55.0169 26.091 55.0288 25.818 54.7438 25.0478C54.7201 24.9795 54.6132 24.9698 54.5657 25.0283C53.6513 26.1008 52.0957 27.495 49.6732 28.4505C47.1557 29.445 44.0682 30.2933 41.6932 30.1958C41.1351 30.1763 41.0401 30.6345 40.9926 31.356C40.9688 31.824 41.4438 32.214 42.0138 32.1653C44.0563 31.9995 47.3338 31.2683 50.1363 30.1178Z" fill="black"/>
<path d="M5.86611 14.4788C5.86611 14.4788 6.61424 12.909 7.02986 12.4215C7.44549 11.934 7.90861 11.4953 7.90861 11.4953L7.77799 11.2028C7.77799 11.2028 6.89924 11.4563 6.74486 11.6708C6.57861 11.895 5.68799 14.1668 5.68799 14.1668L5.86611 14.4788Z" fill="#CC291F"/>
<path opacity="0.2" d="M45.0064 17.8523C45.0895 17.7548 45.1607 17.6573 45.2201 17.5695C44.6145 17.0918 43.4626 16.2533 42.002 15.288C39.627 13.7085 38.2376 12.9773 37.9051 12.9578H37.8932C37.4064 12.9578 35.4707 13.6208 33.3095 14.5373C30.8276 15.5805 29.4976 16.3215 29.3076 16.5458C29.3195 16.6335 29.3907 16.8285 29.5332 17.0918C34.6039 15.7463 40.1495 16.0095 45.0064 17.8523Z" fill="black"/>
<path d="M48.4976 29.5621V30.9856L51.6207 29.7083V28.2946L48.4976 29.5621Z" fill="#E5E5E5"/>
<path opacity="0.2" d="M52.7605 25.7985C52.7605 25.7985 54.4587 24.414 54.3755 24.024C54.2805 23.6242 52.8912 21.6547 52.713 21.9472C52.5349 22.2397 52.1549 22.7077 52.2974 23.1075C52.4399 23.4975 52.7962 25.4377 52.7605 25.7985Z" fill="black"/>
<path d="M29.1889 16.9552C28.8089 16.185 26.1726 13.728 23.2514 12.5482C19.5701 11.0662 16.3639 11.0663 15.7108 11.1443L15.687 11.0175C16.352 10.9395 19.6058 10.9395 23.3226 12.4312C24.617 12.948 26.0183 13.7962 27.2889 14.8102C28.2983 15.6097 29.1176 16.458 29.3433 16.9065L29.1889 16.9552ZM38.6058 13.1625L38.5939 13.1527C37.4064 12.441 34.2358 10.5495 31.3145 9.3795C27.6451 7.90725 24.7833 7.449 24.1539 7.449V7.3125C24.7951 7.3125 27.6926 7.77075 31.3858 9.2625C34.3189 10.4423 37.4895 12.3338 38.6889 13.0455L38.7008 13.0552L38.6058 13.1625Z" fill="#2D3134"/>
<path d="M16.625 19.5V20.475L17.8125 20.9625V19.9875L16.625 19.5ZM19 19.5L17.8125 19.0125V19.9875L19 20.475V19.5ZM17.8125 21.9375L19 22.425V21.45L17.8125 20.9625V21.9375ZM19 20.475V21.45L20.1875 21.9375V20.9625L19 20.475ZM21.375 20.475L20.1875 19.9875V20.9625L21.375 21.45V20.475ZM20.1875 22.9125L21.375 23.4V22.425L20.1875 21.9375V22.9125ZM21.375 21.45V22.425L22.5625 22.9125V21.9375L21.375 21.45ZM23.75 21.45L22.5625 20.9625V21.9375L23.75 22.425V21.45ZM22.5625 23.8875L23.75 24.375V23.4L22.5625 22.9125V23.8875ZM23.75 22.425V23.4L24.9375 23.8875V22.9125L23.75 22.425ZM28.5 24.375V25.35L29.6875 25.8375V24.8625L28.5 24.375ZM28.5 23.4L27.3125 22.9125V23.8875L28.5 24.375V23.4ZM27.3125 25.8375L28.5 26.325V25.35L27.3125 24.8625V25.8375ZM26.125 23.4V24.375L27.3125 24.8625V23.8875L26.125 23.4ZM26.125 22.425L24.9375 21.9375V22.9125L26.125 23.4V22.425ZM24.9375 24.8625L26.125 25.35V24.375L24.9375 23.8875V24.8625Z" fill="#2D3134"/>
<path d="M25.8874 12.5775L31.5874 10.2375L29.4499 9.35999L23.8687 11.7L25.8874 12.5775Z" fill="#2D3134"/>
<path d="M28.9866 8.42395L25.3054 9.9352C25.1391 10.0034 25.0085 10.1107 24.9254 10.2569L24.2129 11.5049L25.8754 12.1874L31.1004 10.0424L30.281 8.7847C30.1979 8.6482 30.0554 8.54095 29.8773 8.48245L29.6635 8.40445C29.4616 8.3362 29.2123 8.3362 28.9866 8.42395Z" fill="#E5E5E5"/>
<path opacity="0.11" d="M25.7093 10.2667L25.1156 10.0522C25.0443 10.1107 24.9849 10.1692 24.9493 10.2472L24.2368 11.4952L25.8993 12.1777V10.491C25.8874 10.4032 25.8162 10.3057 25.7093 10.2667Z" fill="black"/>
<path opacity="0.29" d="M30.2932 8.78474C30.2457 8.71649 30.1863 8.64824 30.115 8.59949L26.22 10.1985C26.0182 10.2765 25.8994 10.452 25.8994 10.6275V12.1875L31.1244 10.0425L30.2932 8.78474Z" fill="black"/>
<path d="M30.1626 10.0425L26.6001 11.505V10.53L29.6876 9.26245L30.1626 10.0425Z" fill="#2D3134"/>
<path opacity="0.11" d="M38.9738 28.8405C38.1426 28.0703 33.3926 23.9753 32.1576 22.3763C30.5426 20.2995 27.9063 15.2198 23.0494 13.3185C18.1807 11.4173 12.6707 12.2265 11.0082 12.324C9.99881 12.3728 8.43131 12.0705 7.33881 11.817C6.62631 12.7043 6.06818 13.5623 5.70006 14.1765L5.54568 14.586C5.27256 15.3173 5.39131 16.1168 5.86631 16.77C6.27006 17.3258 6.78068 17.9693 7.16068 18.3203C7.49318 18.6225 7.89693 18.9443 8.24131 19.2173V19.149C8.24131 18.1155 8.97756 17.4525 10.1176 17.4525C10.5688 17.4525 11.0557 17.5598 11.5544 17.7645C13.2763 18.4665 14.6657 20.1923 14.6657 21.606C14.6657 21.7913 14.6419 21.9668 14.5944 22.1325L31.0888 28.899C31.0769 28.7918 31.0651 28.6845 31.0651 28.587C31.0651 27.5535 31.8013 26.8905 32.9413 26.8905C33.3926 26.8905 33.8794 26.9978 34.3782 27.2025C36.1001 27.9045 37.4894 29.6303 37.4894 31.044C37.4894 31.2098 37.4657 31.356 37.4301 31.5023L38.7482 32.0385C38.7482 32.0385 39.4369 32.1848 40.3157 32.3115C40.1019 30.8783 39.6626 29.484 38.9738 28.8405Z" fill="black"/>
</svg>
