<svg width="20" height="20" viewBox="0 0 20 20" fill="none" xmlns="http://www.w3.org/2000/svg">
<path d="M17.5758 5.81667C16.8675 5.03334 15.6842 4.64167 13.9675 4.64167H13.7675V4.60834C13.7675 3.20834 13.7675 1.47501 10.6342 1.47501H9.36751C6.23418 1.47501 6.23418 3.21667 6.23418 4.60834V4.65001H6.03418C4.30918 4.65001 3.13418 5.04167 2.42584 5.82501C1.60084 6.74167 1.62584 7.97501 1.70918 8.81667L1.71751 8.87501L1.80084 9.75001C1.80918 9.75834 1.82584 9.77501 1.84251 9.78334C2.11751 9.96667 2.40084 10.15 2.70084 10.3167C2.81751 10.3917 2.94251 10.4583 3.06751 10.525C4.49251 11.3083 6.05918 11.8333 7.65084 12.0917C7.72584 12.875 8.06751 13.7917 9.89251 13.7917C11.7175 13.7917 12.0758 12.8833 12.1342 12.075C13.8342 11.8 15.4758 11.2083 16.9592 10.3417C17.0092 10.3167 17.0425 10.2917 17.0842 10.2667C17.4675 10.05 17.8258 9.81667 18.1758 9.55834C18.1936 9.54895 18.2081 9.53443 18.2175 9.51667L18.2508 9.21667L18.2925 8.82501C18.3008 8.77501 18.3008 8.73334 18.3092 8.67501C18.3758 7.83334 18.3592 6.68334 17.5758 5.81667ZM10.9092 11.525C10.9092 12.4083 10.9092 12.5417 9.88418 12.5417C8.85918 12.5417 8.85918 12.3833 8.85918 11.5333V10.4833H10.9092V11.525ZM7.42585 4.64167V4.60834C7.42585 3.19167 7.42585 2.66667 9.36751 2.66667H10.6342C12.5758 2.66667 12.5758 3.20001 12.5758 4.60834V4.65001H7.42585V4.64167Z" fill="#27AE60"/>
<path opacity="0.4" d="M17.0831 10.2483L16.9581 10.3233C15.4683 11.1891 13.8333 11.7765 12.1331 12.0567C12.0665 12.8567 11.7165 13.7733 9.89147 13.7733C8.06647 13.7733 7.71647 12.865 7.64981 12.0733C6.05814 11.8233 4.49147 11.2983 3.06647 10.5067C2.94147 10.44 2.81647 10.3733 2.6998 10.2983C2.3998 10.1317 2.11647 9.94832 1.84147 9.76499C1.8248 9.75666 1.80814 9.73999 1.7998 9.73166L2.30814 15.1567C2.48314 16.815 3.16647 18.5233 6.83314 18.5233H13.1831C16.8498 18.5233 17.5331 16.815 17.7081 15.1483L18.2331 9.49832C18.2237 9.51608 18.2092 9.5306 18.1915 9.53999C17.8331 9.79832 17.4665 10.04 17.0831 10.2483Z" fill="#27AE60"/>
</svg>
