<svg width="20" height="20" viewBox="0 0 20 20" fill="none" xmlns="http://www.w3.org/2000/svg">
<path d="M6.66685 18.3333H13.3335C16.6835 18.3333 17.2835 16.9917 17.4585 15.3583L18.0835 8.69167C18.3085 6.65833 17.7252 5 14.1668 5H5.83351C2.27518 5 1.69185 6.65833 1.91685 8.69167L2.54185 15.3583C2.71685 16.9917 3.31685 18.3333 6.66685 18.3333Z" stroke="#FAFAFA" stroke-width="1.5" stroke-miterlimit="10" stroke-linecap="round" stroke-linejoin="round"/>
<path opacity="0.4" d="M6.6665 5.00008V4.33341C6.6665 2.85841 6.6665 1.66675 9.33317 1.66675H10.6665C13.3332 1.66675 13.3332 2.85841 13.3332 4.33341V5.00008" stroke="#FAFAFA" stroke-width="1.5" stroke-miterlimit="10" stroke-linecap="round" stroke-linejoin="round"/>
<g opacity="0.4">
<path d="M18.0415 9.16675C16.1633 10.5308 13.97 11.3966 11.6665 11.6834M2.18066 9.39175C4.05566 10.6751 6.17233 11.4501 8.33066 11.6917M11.6665 10.8334V11.6834C11.6665 12.5917 11.6582 13.3334 9.99983 13.3334C8.34983 13.3334 8.33316 12.6001 8.33316 11.6917V10.8334C8.33316 10.0001 8.33316 10.0001 9.1665 10.0001H10.8332C11.6665 10.0001 11.6665 10.0001 11.6665 10.8334Z" stroke="#FAFAFA" stroke-width="1.5" stroke-miterlimit="10" stroke-linecap="round" stroke-linejoin="round"/>
</g>
</svg>
